<svg width="25" height="8" viewBox="0 0 25 8" fill="none" xmlns="http://www.w3.org/2000/svg">
<path d="M25 6.9176L17.1875 5.7514L17.1875 4.8764L25 4.2926L25 3.7088L17.1875 3.125L17.1875 2.25L25 1.0838L25 0.5L14.8438 0.5C14.6366 0.5 14.4379 0.57375 14.2914 0.705025C14.1448 0.836301 14.0625 1.01435 14.0625 1.2L14.0625 3.0228L1.55946 2.3354C1.35875 2.32241 1.15722 2.34688 0.967606 2.40725C0.77799 2.46762 0.604418 2.56259 0.457861 2.68614C0.311302 2.80969 0.194948 2.95915 0.116154 3.12505C0.037361 3.29096 -0.00216116 3.46971 9.1415e-05 3.65L9.13844e-05 4.35C9.13508e-05 5.12 0.70165 5.7108 1.55946 5.6646L14.0625 4.9772L14.0625 6.8C14.0625 6.98565 14.1448 7.1637 14.2914 7.29497C14.4379 7.42625 14.6366 7.5 14.8438 7.5L25 7.5L25 6.9162L25 6.9176Z" fill="#FB5607"></path>
<path d="M25 6.9176L17.1875 5.7514L17.1875 4.8764L25 4.2926L25 3.7088L17.1875 3.125L17.1875 2.25L25 1.0838L25 0.5L14.8438 0.5C14.6366 0.5 14.4379 0.57375 14.2914 0.705025C14.1448 0.836301 14.0625 1.01435 14.0625 1.2L14.0625 3.0228L1.55946 2.3354C1.35875 2.32241 1.15722 2.34688 0.967606 2.40725C0.77799 2.46762 0.604418 2.56259 0.457861 2.68614C0.311302 2.80969 0.194948 2.95915 0.116154 3.12505C0.037361 3.29096 -0.00216116 3.46971 9.1415e-05 3.65L9.13844e-05 4.35C9.13508e-05 5.12 0.70165 5.7108 1.55946 5.6646L14.0625 4.9772L14.0625 6.8C14.0625 6.98565 14.1448 7.1637 14.2914 7.29497C14.4379 7.42625 14.6366 7.5 14.8438 7.5L25 7.5L25 6.9162L25 6.9176Z" fill="#FB5607"></path>
</svg>